# xmcd
#
# Track frame offsets:
#	150
#	15424
#	34176
#	51007
#	65454
#	81774
#	96596
#	116391
#	133565
#	148852
#	167151
#	181572
#	198343
#	216562
#	237531
#
# Disc length: 3384 seconds
#
# Revision: 0
# Processed by: cddbd v1.5.2PL0 Copyright (c) Steve Scherf et al.
# Submitted via: audiograbber 1.83.01
#
DISCID=d40d360f
DTITLE=Mike Bauhaus - Es ist nichts mehr wie es war (LC 11053)
DYEAR=2008
DGENRE=Deutsch
TTITLE0=Wunder geschehen (Album Version)
TTITLE1=Gib mich frei (Album Version)
TTITLE2=Rien ne va plus (Album Version)
TTITLE3=Hau endlich ab (Album Version)
TTITLE4=Irgendwann (Album Version)
TTITLE5=Jeder ist sich selbst der Nächste (Album Version)
TTITLE6=Solo Tu  (Album Version)
TTITLE7=Wie das Leben so spielt (Album Version) 
TTITLE8=Es ist nichts mehr wie es war (Album Version)
TTITLE9=Der Junge mit der Mundharmonika (Album Version)
TTITLE10=1000 Nächte (Album Version)
TTITLE11=Diesmal will ich Liebe (Album Version)
TTITLE12=Sirenen der Gefühle (Album Version)
TTITLE13=So bist du (Album Version)
TTITLE14=Wir sind alle wieder Zuhause (Album Version)
EXTD=
EXTT0=
EXTT1=
EXTT2=
EXTT3=
EXTT4=
EXTT5=
EXTT6=
EXTT7=
EXTT8=
EXTT9=
EXTT10=
EXTT11=
EXTT12=
EXTT13=
EXTT14=
PLAYORDER=
